<?xml version="1.0" encoding="UTF-8"?>
<svg id="Ebene_1" data-name="Ebene 1" xmlns="http://www.w3.org/2000/svg" viewBox="0 0 323.95 375.97">
  <defs>
    <style>
      .cls-1 {
        fill: #fff;
      }

      .cls-2 {
        fill: #ea580c;
      }

      .cls-3 {
        fill: none;
        stroke: #fff;
        stroke-miterlimit: 10;
        stroke-width: 3px;
      }

      .cls-4 {
        fill: #d31e00;
      }
    </style>
  </defs>
  <path class="cls-3" d="M14.34,78.73s-20.87-13-9.39-26.56c11.48-13.57,20.87-14.61,23.48-19.31,2.61-4.69,3.13-16.69,3.13-16.69,0,0-3.65-5.22,0-5.74s8.35-12.52,15.13-7.83c6.78,4.7.52,3.13,15.13,6.26,14.61,3.13,24.52-1.04,27.13.53,2.61,1.56,21.92-1.05,24,.52,2.09,1.56,15.29-2.61,20.43,2.08,5.14,4.7,16.62,8.35,17.66,5.74s3.83-10.95,9.22-5.74c5.39,5.22,9.04,5.74,13.21,7.31,4.18,1.56,12.53,3.13,16.18,4.69,3.65,1.57,17.74,3.66,20.87,7.83s12.52,2.61,12.52,2.61c0,0,13.04-6.78,15.65-3.65s4.72-.52,10.71,3.65c5.99,4.17,12.77,0,12.77,0,0,0,7.03,4.08,10.04,5.69,3,1.61,21.79,0,21.79,0,0,0,10.43-.47,13.04,7.35,2.61,7.83,2.61,15.65,2.61,15.65,0,0-5.74,1.05,0,5.22,5.74,4.18,4.69,7.73,3.65,10.39s-3.58,5.78.82,8.39.75.4,2.83,7.77c2.09,7.37,4.18,8.93,5.22,12.06s-1.04,5.74-3.13,8.35-3.13,10.61-7.3,13.39c-4.18,2.78-4.18-.3-6.79,7.5s-4.69,4.67-7.3,8.85c-2.61,4.17-8.87,3.65-8.61,9.91s1.3,4.7-2.87,8.87-9.38-1.04-8.87,6.26c.52,7.31,4.18,7.31,0,10.96-4.17,3.65-9.39,6.26-9.39,6.26,0,0-8.69,1.56-9.56,7.3-.88,5.74,7.99,15.66,7.99,15.66l5.87,5.73s9.26,2.09,10.83,4.18,3.65,4.79,6,7.61,8.09,6.48,10.7,5.95c2.6-.52,8.87,3.66,8.34,7.83-.52,4.17-2.61,12.52-2.61,12.52l-4.69,5.22s1.04,2.09,2.09,6.26c1.04,4.17-5.22,8.08-2.09,12.39s2.61,1.17,3.13,7.96c.52,6.78-4.7,13.62-4.7,13.62,0,0-8.87-.06-10.17-2.14-1.3-2.09-8.6,0-11.74,0s-14.09,2.2-14.61,2.14-1.9,2.03-4.34,7.25c-2.44,5.21-6.08,6.78-8.95,8.34-2.88,1.57,4.94-1.04-2.88,1.57-7.83,2.61-7.83,4.02-10.96,6.18-3.13,2.17-17.22,5.32-17.22,5.32,0,0-7.3,6.76-12,9.89-4.69,3.13-.34,2.61-9.3,4.7-8.96,2.08-11.57,4.69-12.61,6.26-1.04,1.56-5.22,5.22-9.39,5.22s-3.13-6.27-7.83,0c-4.69,6.26-13.56,13.04-16.17,13.04s-10.39,3.13-18.5,0c-8.11-3.13-9.65-4.7-15.66-1.57-6.01,3.13-13.41,11.48-18.84,7.83-5.43-3.65-9.22-6.78-11.5-10.44-2.28-3.65-13.76-12-14.8-9.39-1.05,2.61-8.87,3.66-15.13-3.65-6.27-7.3-6.79-5.74-10.96-8.35-4.18-2.61-4.18-8.87-13.04-7.82-8.87,1.04-10.44-13.05-7.83-16.7s4.69-8.98,2.61-14.14c-2.09-5.16-3.65-8.29-5.22-11.95-1.56-3.65-3.13-9.66,2.61-13.17,5.74-3.52,2.09-12.91,2.09-12.91,0,0-3.66,2.61-5.22-3.65,0,0,2.09-12,9.91-14.61,7.83-2.61,11.3-3.13,20.26-8.35,8.96-5.22,14.7-5.12,16.79-10.65,2.08-5.52-1.57-9.18,2.6-14.39,4.18-5.22,2.09-4.79,1.57-9.7s0-2.83,3.13-8.04c3.13-5.22,1.56-6.79,4.7-14.61,3.13-7.83,6.78-22.44-2.09-23.48-8.87-1.04-16.7-4.17-16.7-4.17,0,0-4.87-2.61-10-4.7s-7.21,5.22-15.56-1.04-15.13-13.92-14.61-18.96-3.13-18.61-3.13-18.61c.53-.17-3.46-15.19-3.07-21.46.36-5.63-1.11-9.89-1.11-9.89Z"/>
  <path class="cls-2" d="M264.22,90.65l-11.91-.17-121.63-1.78c.29.44.55.92.76,1.45,1.55,4.01,1.28,8.3-.73,11.49-.08.12-.16.23-.24.35,41.5-1.55,131.98-4.99,142.46-5.79.91-.07,1.81-.09,2.7-.09-.19-.73-.55-1.39-1.1-1.98-3.05-3.24-10.23-3.47-10.3-3.48Z"/>
  <path class="cls-2" d="M54.87,61.24c-.14.1-.57.42-.66,1.48-.01.12-.08.97-.17,2.39-.01.21-.02.43-.04.67,1.5-.7,2.7-.38,3.44.02,2.07,1.1,2.99,4.12,3.36,5.93,13.9.41,140.96,4.18,188.63,5.5,10.33.29,17.1.46,18.1.46,1.45,0,2.48-.31,2.89-.87.16-.22.23-.47.26-.72l-213.36-15.14-.12-.03c-.38-.08-1.64-.21-2.35.31Z"/>
  <path class="cls-4" d="M53.82,69.33c-.09,1.76-.19,3.76-.27,5.91-.32,8.56-.46,20.05.65,26.22,2.14,11.96,7.6,19.86,16.68,24.15,7.87,3.72,16.83,4.28,26.65,1.66l.12-.03c5.81-1.54,12.96-10.16,13.9-16.76,1.01-7.08,2-13.79,3.03-18.13.93-3.95,6.17-7.18,10.84-6.73l123.51,1.81c-.78-1.54-1.35-3.84-1.16-7.24-51.45-1.43-186.9-5.46-188.27-5.5l-1.28-.04-.16-1.27c-.21-1.67-1-4.4-2.02-4.94-.1-.05-.31-.17-.82.09l-1.39.8Z"/>
  <path class="cls-2" d="M277.2,99.15c-1.3-.08-2.66-.07-4.05.04-10.78.83-105.24,4.4-145.35,5.9l-2.42.09c-.23.01-.35.01-.35.01-4.89,0-7.5-3.77-7.5-6.5h3c0,1.18,1.36,3.5,4.5,3.5h.19c1.06-.09,2.13-.87,2.94-2.15,1.51-2.39,1.68-5.68.47-8.81-.6-1.55-1.75-2.43-3.4-2.62h0c-3.16-.36-7.14,1.91-7.73,4.42-.99,4.22-2.01,11.14-2.97,17.87-.75,5.22-4.72,11.36-9.34,15.34l181.12-23.71c-1.42-1.36-4.17-3.06-9.11-3.39Z"/>
  <path class="cls-4" d="M131.04,302.19c0-13.51-9.64-24.5-21.5-24.5-2.67,0-5.26.55-7.71,1.63h0c-8.24,3.62-13.78,12.81-13.78,22.87,0,13.51,9.64,24.5,21.5,24.5,4.72,0,9.2-1.71,12.96-4.96l.98,1.13h0s-.98-1.13-.98-1.13c5.43-4.68,8.54-11.8,8.54-19.54Z"/>
  <path class="cls-2" d="M181.29,130.69c-8.47,0-13.39,1.44-14.25,2.24v113.18l-56.19,28.62c12.9.76,23.19,12.79,23.19,27.46,0,4.15-.82,8.14-2.34,11.75l63.84-54.04v-126.97c-.86-.8-5.78-2.24-14.25-2.24Z"/>
  <path class="cls-1" d="M101.01,375.97c-1.3,0-2.58-.35-3.81-1.17-6.29-4.22-9.74-7.38-11.94-10.89-1.97-3.15-10.05-8.84-12.36-9.17-.69,1.17-2.11,2-3.99,2.31-3.51.58-8.9-.69-13.45-6-4.25-4.96-5.62-5.58-7.52-6.43-.85-.38-1.81-.82-3.09-1.62-1.6-1-2.62-2.37-3.61-3.7-1.87-2.52-3.34-4.51-8.47-3.9-3.51.41-6.51-1.17-8.45-4.45-2.56-4.33-2.95-11.57-.77-14.61,1.46-2.04,4.6-7.35,2.44-12.71-1.3-3.21-2.37-5.59-3.42-7.89-.61-1.36-1.2-2.66-1.79-4.03-3.67-8.57-.28-12.91,3.21-15.05,3.42-2.1,2.58-7.17,1.92-9.66-.62.12-1.36.11-2.14-.17-1.68-.62-2.89-2.33-3.58-5.08l-.08-.31.05-.31c.09-.53,2.34-12.92,10.92-15.77,1.53-.51,2.89-.94,4.16-1.34,5.27-1.66,8.74-2.76,15.82-6.88,3.25-1.9,6.14-3.13,8.46-4.11,4.09-1.74,6.56-2.8,7.68-5.77.77-2.04.64-3.8.5-5.66-.2-2.67-.43-5.69,2.34-9.15,2.52-3.15,2.41-3.55,1.93-5.23-.23-.83-.52-1.86-.68-3.37-.37-3.51-.25-4.11,1.15-5.85.51-.63,1.2-1.49,2.18-3.12,1.53-2.55,1.83-4.1,2.24-6.25.37-1.94.84-4.36,2.35-8.15,2.79-6.97,4.59-15.69,2.35-19.46-.68-1.15-1.74-1.8-3.22-1.97-8.96-1.05-16.75-4.14-17.08-4.27l-.15-.07s-4.87-2.6-9.86-4.63c-1.4-.57-2.42-.19-4.11.51-2.7,1.13-6.07,2.54-11.79-1.75-3.77-2.83-15.99-12.64-15.2-20.31.4-3.91-2.09-14.37-3.09-18.06l-.37-1.38.25-.08c-.16-.92-.45-2.36-.71-3.68-1.01-5.04-2.54-12.64-2.28-16.8.26-4.2-.55-7.63-.89-8.85-2.27-1.52-11.53-8.18-12.89-16.83-.65-4.12.58-8.04,3.63-11.65,6.98-8.24,13.13-11.93,17.63-14.62,2.8-1.67,4.82-2.88,5.68-4.44,1.9-3.43,2.72-11.95,2.92-15.55-.79-1.23-2.18-3.84-1.33-5.81.25-.58.93-1.59,2.64-1.84.73-.1,2.19-1.75,3.36-3.08,2.92-3.31,7.34-8.3,12.83-4.5,2.06,1.43,3,2.33,3.62,2.92q1.03.98,8.33,2.54l2.64.56c8.77,1.88,15.87,1.05,20.57.49,3.48-.41,5.58-.65,7.02.21,1.09.54,7.3.24,11.41.05,7.99-.39,11.38-.44,12.71.56.51.21,3.01,0,4.84-.17,5.05-.45,11.96-1.06,15.7,2.35,4.53,4.14,13.59,6.88,15.32,6.13l.13-.34c.95-2.45,2.73-7.01,6.16-7.76,1.75-.38,3.54.29,5.3,2,4.21,4.07,7.27,5.11,10.51,6.21.72.24,1.45.49,2.19.77,1.89.71,4.78,1.45,7.58,2.16,3.4.87,6.61,1.69,8.65,2.56,1,.43,3.03.94,5.39,1.54,6.06,1.53,13.59,3.44,16.09,6.77,2.05,2.74,8.32,2.45,10.85,2.06,4.37-2.25,14.28-6.77,17.28-3.17.76.91,1.26.91,2.58.9,1.79,0,4.22-.03,7.83,2.49,5.09,3.55,10.89.1,11.13-.05l.76-.46.77.44c.07.04,7.04,4.09,9.99,5.67,1.62.87,12.13.58,20.95-.17.53-.02,11.66-.43,14.59,8.37,2.66,7.97,2.69,15.8,2.69,16.13v1.25l-1.23.22c-.54.1-1.21.41-1.33.6,0,0,.15.62,1.95,1.92,6.95,5.06,5.07,9.84,4.17,12.15-.18.45-.4.92-.62,1.4-1.19,2.54-1.62,3.72.81,5.16l.1.06c2.38,1.41,3.18,1.89,2.86,3.79-.11.62-.31,1.78.55,4.8,1.26,4.46,2.53,6.72,3.54,8.52.63,1.12,1.22,2.18,1.65,3.48,1.3,3.9-1.19,7.01-3.38,9.76-.63.79-1.24,2.45-1.89,4.22-1.22,3.33-2.74,7.47-5.76,9.48-1.45.97-2.47,1.31-3.22,1.56-1.08.36-1.4.47-2.97,5.16-1.63,4.88-3.21,6.04-5.1,7.04-.86.45-1.54.81-2.36,2.13-1.22,1.95-3.05,3.01-4.66,3.94-2.52,1.46-3.83,2.35-3.72,5.11.05,1.26.14,2.18.2,2.93.29,3.19,0,3.58-2.66,6.22l-.85.85c-2.19,2.19-4.61,2.28-6.37,2.35-.74.03-1.58.06-1.79.29-.1.11-.4.6-.27,2.45.19,2.65.81,4.2,1.3,5.46.94,2.37,1.36,3.97-1.81,6.74-4.27,3.74-9.49,6.36-9.71,6.47l-.19.1-.21.04c-.07.01-7.64,1.45-8.34,6.05-.63,4.13,5.3,11.81,7.63,14.43l5.49,5.37c2.69.63,9.62,2.42,11.29,4.64,2.01,2.68,4.01,5.22,5.95,7.55,2.24,2.69,7.52,5.79,9.25,5.44,2.25-.45,5.31,1.24,7.2,3,2.16,2.01,3.2,4.31,2.93,6.49-.53,4.21-2.56,12.35-2.64,12.7l-.09.36-4.3,4.78c.42,1.03,1.1,2.91,1.78,5.61.59,2.38-.54,4.53-1.55,6.43-1.27,2.4-1.94,3.84-.78,5.43.86,1.18,1.4,1.74,1.79,2.15,1.23,1.27,1.26,1.69,1.49,4.91l.12,1.67c.56,7.27-4.77,14.35-5,14.65l-.45.6h-.75c-2.92-.02-9.86-.34-11.44-2.85-.68-.57-4.57,0-6.44.27-1.51.22-2.94.43-4.02.43-1.93,0-7.52.98-10.86,1.56-1.88.33-2.78.48-3.27.55-.35.43-1.34,1.86-3.47,6.42-2.23,4.76-5.38,6.76-8.08,8.22-.07.94-1.11,1.3-1.77,1.52-.55.19-1.45.49-2.86.96-5.53,1.84-6.89,3-8.47,4.34-.61.52-1.24,1.05-2.11,1.65-3.08,2.13-14.72,4.86-17.35,5.46-1.44,1.32-7.63,6.93-11.89,9.76-1.46.98-1.9,1.5-2.24,1.92-1.06,1.29-1.71,1.62-7.55,2.99-6.24,1.45-10.18,3.35-11.7,5.63-1.33,1.99-5.95,5.89-10.64,5.89-2.31,0-3.55-1.41-4.29-2.26-.13-.15-.29-.33-.41-.45-.25.17-.84.66-1.93,2.11-4.37,5.83-13.76,13.64-17.37,13.64-.5,0-1.45.19-2.54.41-3.74.75-10,2-16.5-.51-1.18-.46-2.22-.88-3.16-1.26-5.45-2.21-6.74-2.74-11.27-.38-1.62.84-3.37,2.1-5.22,3.44-3.62,2.61-7.59,5.47-11.34,5.47ZM72.6,351.74c3.97,0,13.25,7.46,15.21,10.59,1.95,3.12,5.16,6.01,11.07,9.99,3.02,2.03,7.44-1.16,11.72-4.25,1.86-1.34,3.78-2.72,5.59-3.66,5.76-3,8.11-2.05,13.78.26.92.37,1.95.79,3.11,1.24,5.68,2.2,11.19,1.09,14.83.37,1.3-.26,2.33-.47,3.13-.47,1.76,0,10.15-6.02,14.97-12.44,1.79-2.38,2.99-3.33,4.29-3.38,1.32-.05,2.12.87,2.71,1.55.69.79,1.12,1.23,2.03,1.23,3.54,0,7.31-3.3,8.14-4.55,1.99-2.98,6.41-5.23,13.52-6.89,5.32-1.24,5.49-1.45,5.92-1.97.42-.51,1.06-1.29,2.9-2.51,4.54-3.03,11.74-9.68,11.81-9.74l.3-.27.39-.09c5.55-1.24,14.57-3.62,16.69-5.09.75-.52,1.3-.98,1.88-1.47,1.74-1.48,3.39-2.87,9.46-4.9.53-.18,1.01-.34,1.42-.47.33-.51.92-.83,1.22-.99l.77-.41c2.72-1.44,5.52-2.94,7.54-7.25,3.5-7.48,4.54-8.2,5.74-8.11.4-.04,1.82-.29,3.2-.53,3.88-.68,9.19-1.61,11.38-1.61.86,0,2.19-.19,3.59-.4,4.11-.6,8-1.17,9.42,1.1.57.67,4.33,1.32,8.13,1.43,1.18-1.74,4.36-6.97,3.97-12l-.12-1.68q-.18-2.55-.66-3.04c-.43-.45-1.09-1.12-2.07-2.47-2.31-3.18-.72-6.19.55-8.6.83-1.56,1.61-3.04,1.29-4.3-.98-3.93-1.96-5.94-1.97-5.96l-.45-.91,5.12-5.7c.4-1.64,2.04-8.43,2.49-11.98.15-1.18-.58-2.6-1.99-3.92-1.8-1.68-3.85-2.39-4.57-2.25-3.59.72-9.91-3.78-12.14-6.46-1.97-2.37-4-4.95-6.05-7.67-.74-.98-5.75-2.66-9.96-3.61l-.42-.09-6.17-6.04c-1.03-1.14-9.38-10.69-8.43-16.95.95-6.22,9.03-8.19,10.54-8.51.92-.48,5.35-2.85,8.91-5.96,1.73-1.52,1.69-1.62,1-3.37-.51-1.29-1.29-3.24-1.51-6.35-.16-2.25.16-3.69,1.03-4.66,1.05-1.18,2.57-1.24,3.91-1.29,1.55-.06,3-.12,4.37-1.48l.87-.86q1.95-1.93,1.78-3.81c-.07-.73-.16-1.74-.21-3.07-.2-4.71,2.81-6.45,5.22-7.84,1.44-.83,2.79-1.61,3.62-2.93,1.25-2,2.5-2.66,3.5-3.19,1.22-.65,2.27-1.2,3.66-5.34,1.84-5.51,2.61-6.3,4.86-7.05.65-.22,1.39-.47,2.52-1.22,2.2-1.47,3.48-4.95,4.6-8.02.77-2.09,1.43-3.9,2.36-5.06,2.28-2.85,3.61-4.74,2.88-6.94-.34-1.03-.82-1.88-1.42-2.96-1.09-1.95-2.45-4.37-3.81-9.18-.98-3.46-.79-5.07-.65-5.97-.31-.21-.83-.51-1.41-.85l-.1-.06c-4.87-2.89-3.07-6.72-1.99-9.02.19-.41.39-.82.54-1.22.86-2.2,1.94-4.93-3.14-8.62-.9-.66-3.65-2.65-3.1-5.05.31-1.36,1.48-2.1,2.45-2.48-.11-2.39-.56-8.27-2.5-14.07-2.21-6.64-11.46-6.33-11.56-6.33-4.45.38-19.41,1.51-22.56-.18-2.46-1.32-7.47-4.21-9.36-5.3-2.14,1.06-8.1,3.35-13.6-.49-2.82-1.97-4.57-1.96-6.1-1.95-1.52.02-3.24.02-4.9-1.98-.94-1.13-7.65.82-13.81,4.02l-.21.11-.24.04c-1.05.18-10.39,1.58-13.97-3.19-1.86-2.48-9.42-4.39-14.43-5.66-2.58-.65-4.62-1.17-5.83-1.69-1.83-.78-5.07-1.61-8.21-2.41-2.88-.73-5.86-1.49-7.9-2.26-.71-.27-1.41-.5-2.1-.74-3.41-1.16-6.94-2.35-11.63-6.89-1-.97-1.87-1.38-2.58-1.23-1.86.41-3.36,4.27-4,5.92l-.21.52c-.24.59-.8,1.36-2.16,1.67-3.88.89-13.42-2.77-17.91-6.86-2.76-2.52-8.92-1.98-13.41-1.58-3.73.33-5.73.46-6.9-.42-.97-.44-6.87-.15-10.77.03-7.93.38-11.56.45-13.1-.47-.56-.34-2.99-.05-5.13.2-4.9.57-12.29,1.44-21.55-.54l-2.64-.56c-7.98-1.7-8.14-1.73-9.78-3.31-.58-.56-1.38-1.33-3.25-2.62-3.08-2.13-5.51.21-8.88,4.02-1.8,2.04-3.36,3.8-5.19,4.06-.22.03-.32.08-.34.1-.14.36.44,1.98,1.36,3.3l.29.42-.02.51c-.02.5-.57,12.41-3.32,17.36-1.26,2.26-3.69,3.71-6.76,5.56-4.32,2.58-10.23,6.12-16.88,13.99-2.5,2.96-3.47,5.98-2.96,9.24,1.3,8.31,11.9,15.01,12,15.08l.45.28.17.5c.06.19,1.55,4.61,1.19,10.48-.24,3.76,1.25,11.14,2.23,16.02.57,2.81.88,4.38.88,5.31.59,2.23,3.58,13.95,3.08,18.8-.41,3.94,5.23,11.01,14.02,17.6,4.34,3.26,6.42,2.39,8.83,1.38,1.77-.74,3.79-1.59,6.4-.52,4.85,1.97,9.39,4.36,10.06,4.72.8.31,8.13,3.09,16.24,4.05,2.4.28,4.29,1.46,5.45,3.42,3.81,6.41-1.11,19.54-2.14,22.11-1.41,3.52-1.82,5.69-2.19,7.6-.43,2.26-.81,4.21-2.61,7.23-1.08,1.81-1.89,2.8-2.42,3.46q-.79.98-.5,3.65c.13,1.26.38,2.11.59,2.87.73,2.59.71,3.94-2.48,7.92-2.03,2.54-1.88,4.53-1.69,7.05.15,2.01.32,4.28-.68,6.94-1.57,4.17-4.99,5.62-9.31,7.47-2.36,1.01-5.03,2.15-8.12,3.95-7.36,4.29-11.17,5.49-16.43,7.15-1.26.4-2.6.82-4.11,1.33-6.25,2.08-8.47,11.33-8.85,13.14.41,1.47.99,2.44,1.61,2.68.58.22,1.21-.2,1.22-.21l1.55-1.04.7,1.73c.17.43,4.03,10.61-2.7,14.73-3.66,2.24-4.31,5.94-2.01,11.31.58,1.35,1.16,2.63,1.77,3.97,1.05,2.33,2.14,4.73,3.46,8,2.72,6.74-1.04,13.14-2.78,15.58-1.25,1.75-1.34,7.53.92,11.34,1.34,2.26,3.18,3.27,5.51,2.99,6.84-.8,9.28,2.47,11.23,5.1.86,1.16,1.67,2.25,2.79,2.95,1.11.69,1.94,1.07,2.73,1.43,2.41,1.09,4.11,2.02,8.57,7.22,3.75,4.37,7.98,5.44,10.68,5,1.21-.2,1.81-.67,1.92-.92.33-.82,1.06-1.34,2.01-1.43.08,0,.17-.01.25-.01Z"/>
</svg>